M48
; DRILL file {KiCad (5.1.8)-1} date 02/24/25 09:12:37
; FORMAT={-:-/ absolute / inch / decimal}
; #@! TF.CreationDate,2025-02-24T09:12:37-07:00
; #@! TF.GenerationSoftware,Kicad,Pcbnew,(5.1.8)-1
; #@! TF.FileFunction,Plated,1,2,PTH
FMAT,2
INCH
T1C0.0157
T2C0.0236
T3C0.0300
T4C0.0315
T5C0.0354
T6C0.0394
T7C0.0433
T8C0.0709
T9C0.1560
%
G90
G05
T1
X3.9Y-2.52
X5.5Y-3.1
X5.5Y-4.94
X5.5Y-5.15
X5.5Y-5.48
X5.54Y-6.72
X5.57Y-3.18
X5.57Y-3.6
X5.57Y-3.92
X5.57Y-4.42
X5.61Y-1.06
X5.61Y-1.62
X5.61Y-1.68
X5.61Y-2.52
X5.61Y-3.76
X5.61Y-4.09
X5.61Y-4.62
X5.61Y-5.18
X5.61Y-6.08
X5.64Y-3.34
X5.65Y-2.02
X5.65Y-4.01
X5.65Y-5.11
X5.65Y-5.82
X5.65Y-6.31
X5.68Y-3.27
X5.77Y-1.8
X5.78Y-6.55
X5.84Y-4.98
X5.84Y-5.48
X5.88Y-5.32
X5.88Y-5.38
X5.88Y-5.93
X5.8828Y-6.7272
X5.9Y-5.11
X5.9Y-5.28
X5.93Y-5.42
X5.94Y-5.32
T2
X5.54Y-6.31
X5.5991Y-6.31
T3
X4.87Y-1.46
X5.39Y-1.46
X3.33Y-1.36
X5.39Y-4.17
X2.47Y-1.46
X5.45Y-1.36
X4.07Y-1.46
X4.0Y-1.6
X4.0Y-1.7
X4.0Y-1.8
X4.0Y-1.9
X4.0Y-2.0
X4.0Y-2.1
X4.0Y-2.2
X4.0Y-2.3
X4.0Y-2.4
X4.0Y-2.5
X4.0Y-2.6
X4.0Y-2.7
X4.0Y-2.8
X4.0Y-2.9
X4.0Y-3.0
X4.0Y-3.1
X4.0Y-3.2
X4.0Y-3.3
X4.0Y-3.4
X4.0Y-3.5
X4.0Y-3.6
X4.0Y-3.7
X4.0Y-3.8
X4.0Y-3.9
X4.0Y-4.0
X4.0Y-4.1
X4.0Y-4.2
X4.0Y-4.3
X4.0Y-4.4
X4.0Y-4.5
X4.0Y-4.6
X4.0Y-5.0
X4.0Y-5.1
X4.0Y-5.2
X4.0Y-5.3
X4.0Y-5.4
X4.0Y-5.5
X4.0Y-5.6
X4.0Y-5.7
X4.0Y-5.8
X4.0Y-5.9
X4.0Y-6.0
X4.0Y-6.1
X4.0Y-6.2
X4.0Y-6.3
X4.0Y-6.4
X4.0Y-6.5
X4.0Y-6.6
X4.0Y-6.7
X4.2Y-1.6
X4.2Y-1.7
X4.2Y-1.8
X4.2Y-1.9
X4.2Y-2.0
X4.2Y-2.1
X4.2Y-2.2
X4.2Y-2.3
X4.2Y-2.4
X4.2Y-2.5
X4.2Y-2.6
X4.2Y-2.7
X4.2Y-2.8
X4.2Y-2.9
X4.2Y-3.0
X4.2Y-3.1
X4.2Y-3.2
X4.2Y-3.3
X4.2Y-3.4
X4.2Y-3.5
X4.2Y-3.6
X4.2Y-3.7
X4.2Y-3.8
X4.2Y-3.9
X4.2Y-4.0
X4.2Y-4.1
X4.2Y-4.2
X4.2Y-4.3
X4.2Y-4.4
X4.2Y-4.5
X4.2Y-4.6
X4.2Y-5.0
X4.2Y-5.1
X4.2Y-5.2
X4.2Y-5.3
X4.2Y-5.4
X4.2Y-5.5
X4.2Y-5.6
X4.2Y-5.7
X4.2Y-5.8
X4.2Y-5.9
X4.2Y-6.0
X4.2Y-6.1
X4.2Y-6.2
X4.2Y-6.3
X4.2Y-6.4
X4.2Y-6.5
X4.2Y-6.6
X4.2Y-6.7
X4.13Y-1.36
X2.53Y-1.36
X3.2Y-1.6
X3.2Y-1.7
X3.2Y-1.8
X3.2Y-1.9
X3.2Y-2.0
X3.2Y-2.1
X3.2Y-2.2
X3.2Y-2.3
X3.2Y-2.4
X3.2Y-2.5
X3.2Y-2.6
X3.2Y-2.7
X3.2Y-2.8
X3.2Y-2.9
X3.2Y-3.0
X3.2Y-3.1
X3.2Y-3.2
X3.2Y-3.3
X3.2Y-3.4
X3.2Y-3.5
X3.2Y-3.6
X3.2Y-3.7
X3.2Y-3.8
X3.2Y-3.9
X3.2Y-4.0
X3.2Y-4.1
X3.2Y-4.2
X3.2Y-4.3
X3.2Y-4.4
X3.2Y-4.5
X3.2Y-4.6
X3.2Y-5.0
X3.2Y-5.1
X3.2Y-5.2
X3.2Y-5.3
X3.2Y-5.4
X3.2Y-5.5
X3.2Y-5.6
X3.2Y-5.7
X3.2Y-5.8
X3.2Y-5.9
X3.2Y-6.0
X3.2Y-6.1
X3.2Y-6.2
X3.2Y-6.3
X3.2Y-6.4
X3.2Y-6.5
X3.2Y-6.6
X3.2Y-6.7
X3.4Y-1.6
X3.4Y-1.7
X3.4Y-1.8
X3.4Y-1.9
X3.4Y-2.0
X3.4Y-2.1
X3.4Y-2.2
X3.4Y-2.3
X3.4Y-2.4
X3.4Y-2.5
X3.4Y-2.6
X3.4Y-2.7
X3.4Y-2.8
X3.4Y-2.9
X3.4Y-3.0
X3.4Y-3.1
X3.4Y-3.2
X3.4Y-3.3
X3.4Y-3.4
X3.4Y-3.5
X3.4Y-3.6
X3.4Y-3.7
X3.4Y-3.8
X3.4Y-3.9
X3.4Y-4.0
X3.4Y-4.1
X3.4Y-4.2
X3.4Y-4.3
X3.4Y-4.4
X3.4Y-4.5
X3.4Y-4.6
X3.4Y-5.0
X3.4Y-5.1
X3.4Y-5.2
X3.4Y-5.3
X3.4Y-5.4
X3.4Y-5.5
X3.4Y-5.6
X3.4Y-5.7
X3.4Y-5.8
X3.4Y-5.9
X3.4Y-6.0
X3.4Y-6.1
X3.4Y-6.2
X3.4Y-6.3
X3.4Y-6.4
X3.4Y-6.5
X3.4Y-6.6
X3.4Y-6.7
X3.27Y-1.46
X4.8Y-1.6
X4.8Y-1.7
X4.8Y-1.8
X4.8Y-1.9
X4.8Y-2.0
X4.8Y-2.1
X4.8Y-2.2
X4.8Y-2.3
X4.8Y-2.4
X4.8Y-2.5
X4.8Y-2.6
X4.8Y-2.7
X4.8Y-2.8
X4.8Y-2.9
X4.8Y-3.0
X4.8Y-3.1
X4.8Y-3.2
X4.8Y-3.3
X4.8Y-3.4
X4.8Y-3.5
X4.8Y-3.6
X4.8Y-3.7
X4.8Y-3.8
X4.8Y-3.9
X4.8Y-4.0
X4.8Y-4.1
X4.8Y-4.2
X4.8Y-4.3
X4.8Y-4.4
X4.8Y-4.5
X4.8Y-4.6
X4.8Y-5.0
X4.8Y-5.1
X4.8Y-5.2
X4.8Y-5.3
X4.8Y-5.4
X4.8Y-5.5
X4.8Y-5.6
X4.8Y-5.7
X4.8Y-5.8
X4.8Y-5.9
X4.8Y-6.0
X4.8Y-6.1
X4.8Y-6.2
X4.8Y-6.3
X4.8Y-6.4
X4.8Y-6.5
X4.8Y-6.6
X4.8Y-6.7
X5.0Y-1.6
X5.0Y-1.7
X5.0Y-1.8
X5.0Y-1.9
X5.0Y-2.0
X5.0Y-2.1
X5.0Y-2.2
X5.0Y-2.3
X5.0Y-2.4
X5.0Y-2.5
X5.0Y-2.6
X5.0Y-2.7
X5.0Y-2.8
X5.0Y-2.9
X5.0Y-3.0
X5.0Y-3.1
X5.0Y-3.2
X5.0Y-3.3
X5.0Y-3.4
X5.0Y-3.5
X5.0Y-3.6
X5.0Y-3.7
X5.0Y-3.8
X5.0Y-3.9
X5.0Y-4.0
X5.0Y-4.1
X5.0Y-4.2
X5.0Y-4.3
X5.0Y-4.4
X5.0Y-4.5
X5.0Y-4.6
X5.0Y-5.0
X5.0Y-5.1
X5.0Y-5.2
X5.0Y-5.3
X5.0Y-5.4
X5.0Y-5.5
X5.0Y-5.6
X5.0Y-5.7
X5.0Y-5.8
X5.0Y-5.9
X5.0Y-6.0
X5.0Y-6.1
X5.0Y-6.2
X5.0Y-6.3
X5.0Y-6.4
X5.0Y-6.5
X5.0Y-6.6
X5.0Y-6.7
X5.45Y-2.91
X4.93Y-1.36
X2.4Y-1.6
X2.4Y-1.7
X2.4Y-1.8
X2.4Y-1.9
X2.4Y-2.0
X2.4Y-2.1
X2.4Y-2.2
X2.4Y-2.3
X2.4Y-2.4
X2.4Y-2.5
X2.4Y-2.6
X2.4Y-2.7
X2.4Y-2.8
X2.4Y-2.9
X2.4Y-3.0
X2.4Y-3.1
X2.4Y-3.2
X2.4Y-3.3
X2.4Y-3.4
X2.4Y-3.5
X2.4Y-3.6
X2.4Y-3.7
X2.4Y-3.8
X2.4Y-3.9
X2.4Y-4.0
X2.4Y-4.1
X2.4Y-4.2
X2.4Y-4.3
X2.4Y-4.4
X2.4Y-4.5
X2.4Y-4.6
X2.4Y-5.0
X2.4Y-5.1
X2.4Y-5.2
X2.4Y-5.3
X2.4Y-5.4
X2.4Y-5.5
X2.4Y-5.6
X2.4Y-5.7
X2.4Y-5.8
X2.4Y-5.9
X2.4Y-6.0
X2.4Y-6.1
X2.4Y-6.2
X2.4Y-6.3
X2.4Y-6.4
X2.4Y-6.5
X2.4Y-6.6
X2.4Y-6.7
X2.6Y-1.6
X2.6Y-1.7
X2.6Y-1.8
X2.6Y-1.9
X2.6Y-2.0
X2.6Y-2.1
X2.6Y-2.2
X2.6Y-2.3
X2.6Y-2.4
X2.6Y-2.5
X2.6Y-2.6
X2.6Y-2.7
X2.6Y-2.8
X2.6Y-2.9
X2.6Y-3.0
X2.6Y-3.1
X2.6Y-3.2
X2.6Y-3.3
X2.6Y-3.4
X2.6Y-3.5
X2.6Y-3.6
X2.6Y-3.7
X2.6Y-3.8
X2.6Y-3.9
X2.6Y-4.0
X2.6Y-4.1
X2.6Y-4.2
X2.6Y-4.3
X2.6Y-4.4
X2.6Y-4.5
X2.6Y-4.6
X2.6Y-5.0
X2.6Y-5.1
X2.6Y-5.2
X2.6Y-5.3
X2.6Y-5.4
X2.6Y-5.5
X2.6Y-5.6
X2.6Y-5.7
X2.6Y-5.8
X2.6Y-5.9
X2.6Y-6.0
X2.6Y-6.1
X2.6Y-6.2
X2.6Y-6.3
X2.6Y-6.4
X2.6Y-6.5
X2.6Y-6.6
X2.6Y-6.7
T4
X2.72Y-1.63
X2.72Y-1.8269
X2.72Y-4.43
X2.72Y-4.6269
X3.88Y-6.53
X3.88Y-6.7269
X4.68Y-1.63
X4.68Y-1.8269
X3.08Y-4.43
X3.08Y-4.6269
X5.7Y-4.86
X5.8969Y-4.86
X2.72Y-6.53
X2.72Y-6.7269
X5.55Y-1.82
X5.95Y-1.82
X5.7Y-5.2
X5.7Y-5.3
X5.7Y-5.4
X5.7Y-5.5
X6.0Y-5.2
X6.0Y-5.3
X6.0Y-5.4
X6.0Y-5.5
X5.55Y-5.95
X5.95Y-5.95
X4.68Y-6.53
X4.68Y-6.7269
X5.7Y-4.96
X5.8969Y-4.96
X3.08Y-6.53
X3.08Y-6.7269
X3.08Y-1.63
X3.08Y-1.8269
X3.88Y-1.63
X3.88Y-1.8269
X5.55Y-5.8
X5.95Y-5.8
X3.88Y-4.4331
X3.88Y-4.63
X4.68Y-4.43
X4.68Y-4.6269
X5.55Y-6.1
X5.95Y-6.1
T5
X5.75Y-1.62
X5.85Y-1.62
T6
X5.8Y-6.3
X5.9Y-6.3
T7
X5.6941Y-6.55
X5.6941Y-6.7272
X5.95Y-6.55
X5.95Y-6.7272
T8
X5.8Y-2.6
X5.8Y-2.7654
X5.8Y-2.9307
X5.8Y-3.0961
X5.8Y-3.2614
X5.8Y-3.4268
X5.8Y-3.5921
X5.8Y-3.7575
X5.8Y-3.9228
X5.8Y-4.0882
X5.8Y-4.2535
X5.8Y-4.4189
X5.9654Y-2.6
X5.9654Y-2.7654
X5.9654Y-2.9307
X5.9654Y-3.0961
X5.9654Y-3.2614
X5.9654Y-3.4268
X5.9654Y-3.5921
X5.9654Y-3.7575
X5.9654Y-3.9228
X5.9654Y-4.0882
X5.9654Y-4.2535
X5.9654Y-4.4189
T9
X5.4Y-1.0
T0
M30
